<!DOCTYPE svg PUBLIC "-//W3C//DTD SVG 1.1//EN" "http://www.w3.org/Graphics/SVG/1.1/DTD/svg11.dtd">
<!-- Uploaded to: SVG Repo, www.svgrepo.com, Transformed by: SVG Repo Mixer Tools -->
<svg version="1.1" id="_x32_" xmlns="http://www.w3.org/2000/svg" xmlns:xlink="http://www.w3.org/1999/xlink" viewBox="0 0 512.00 512.00" xml:space="preserve" width="256px" height="256px" fill="#ffffff">
<g id="SVGRepo_bgCarrier" stroke-width="0"/>
<g id="SVGRepo_tracerCarrier" stroke-linecap="round" stroke-linejoin="round"/>
<g id="SVGRepo_iconCarrier"> <style type="text/css"> .st0{fill:#ffffff;} </style> <g> <rect x="141.312" class="st0" width="32.771" height="71.683"/> <rect x="206.853" class="st0" width="32.761" height="71.683"/> <rect x="272.385" class="st0" width="32.761" height="71.683"/> <rect x="337.917" class="st0" width="32.77" height="71.683"/> <rect x="141.312" y="440.326" class="st0" width="32.771" height="71.674"/> <rect x="206.853" y="440.326" class="st0" width="32.761" height="71.674"/> <rect x="272.385" y="440.326" class="st0" width="32.761" height="71.674"/> <rect x="337.917" y="440.326" class="st0" width="32.77" height="71.674"/> <rect x="440.321" y="141.307" class="st0" width="71.674" height="32.771"/> <rect x="440.321" y="206.849" class="st0" width="71.674" height="32.77"/> <rect x="440.321" y="272.39" class="st0" width="71.674" height="32.761"/> <rect x="440.321" y="337.922" class="st0" width="71.674" height="32.77"/> <rect x="0.005" y="141.307" class="st0" width="71.674" height="32.771"/> <rect x="0.005" y="206.849" class="st0" width="71.674" height="32.77"/> <rect x="0.005" y="272.39" class="st0" width="71.674" height="32.761"/> <rect x="0.005" y="337.922" class="st0" width="71.674" height="32.77"/> <path class="st0" d="M255.246,252.209c6.171,0,9.862-3.586,9.862-9.06c0-5.485-3.69-9.176-9.862-9.176h-11.16 c-0.4,0-0.6,0.21-0.6,0.61v17.025c0,0.4,0.2,0.601,0.6,0.601H255.246z"/> <path class="st0" d="M92.165,419.84h327.67V92.17H92.165V419.84z M367.359,130.568c8.479,0,15.356,6.867,15.356,15.356 c0,8.488-6.876,15.355-15.356,15.355c-8.479,0-15.356-6.867-15.356-15.355C352.004,137.434,358.88,130.568,367.359,130.568z M367.359,353.287c8.479,0,15.356,6.867,15.356,15.356c0,8.488-6.876,15.355-15.356,15.355c-8.479,0-15.356-6.867-15.356-15.355 C352.004,360.154,358.88,353.287,367.359,353.287z M290.821,222.318c0-0.591,0.4-0.991,1.001-0.991h12.648 c0.6,0,1.001,0.4,1.001,0.991v42.242c0,8.069,4.483,12.648,11.35,12.648c6.772,0,11.264-4.578,11.264-12.648v-42.242 c0-0.591,0.4-0.991,0.992-0.991h12.646c0.601,0,0.992,0.4,0.992,0.991v41.851c0,16.825-10.749,25.99-25.895,25.99 c-15.232,0-25.999-9.165-25.999-25.99V222.318z M228.846,222.318c0-0.591,0.4-0.991,1.001-0.991h26.295 c14.745,0,23.605,8.87,23.605,21.822c0,12.741-8.966,21.707-23.605,21.707h-12.056c-0.4,0-0.6,0.2-0.6,0.6v22.614 c0,0.591-0.391,0.991-0.991,0.991h-12.648c-0.601,0-1.001-0.4-1.001-0.991V222.318z M167.673,236.872 c3.586-11.063,12.256-16.633,24.112-16.633c11.454,0,19.819,5.57,23.605,15.03c0.295,0.496,0.095,0.992-0.496,1.202l-10.863,4.874 c-0.592,0.296-1.097,0.104-1.393-0.486c-1.889-4.387-5.084-7.678-10.759-7.678c-5.274,0-8.66,2.795-10.157,7.468 c-0.801,2.499-1.097,4.883-1.097,14.554c0,9.652,0.296,12.046,1.097,14.535c1.497,4.673,4.883,7.468,10.157,7.468 c5.675,0,8.87-3.291,10.759-7.669c0.296-0.6,0.801-0.791,1.393-0.496l10.863,4.874c0.591,0.21,0.791,0.706,0.496,1.202 c-3.786,9.461-12.152,15.04-23.605,15.04c-11.856,0-20.525-5.58-24.112-16.643c-1.487-4.368-1.888-7.859-1.888-18.312 C165.785,244.732,166.186,241.26,167.673,236.872z M144.64,130.568c8.489,0,15.365,6.876,15.365,15.356 c0,8.478-6.876,15.355-15.365,15.355c-8.488,0-15.355-6.876-15.355-15.355C129.285,137.444,136.152,130.568,144.64,130.568z M144.64,353.287c8.489,0,15.365,6.876,15.365,15.356c0,8.478-6.876,15.355-15.365,15.355c-8.488,0-15.355-6.877-15.355-15.355 C129.285,360.163,136.152,353.287,144.64,353.287z"/> </g> </g>
</svg>