<!DOCTYPE svg PUBLIC "-//W3C//DTD SVG 1.1//EN" "http://www.w3.org/Graphics/SVG/1.1/DTD/svg11.dtd">
<!-- Uploaded to: SVG Repo, www.svgrepo.com, Transformed by: SVG Repo Mixer Tools -->
<svg fill="#ffffff" version="1.1" id="Capa_1" xmlns="http://www.w3.org/2000/svg" xmlns:xlink="http://www.w3.org/1999/xlink" width="256px" height="256px" viewBox="0 0 926 926" xml:space="preserve">
<g id="SVGRepo_bgCarrier" stroke-width="0"/>
<g id="SVGRepo_tracerCarrier" stroke-linecap="round" stroke-linejoin="round"/>
<g id="SVGRepo_iconCarrier"> <g> <g> <path d="M734.4,0h-542.8c-29.4,0-53.2,23.8-53.2,53.2v819.6c0,29.4,23.8,53.2,53.2,53.2h542.8c29.4,0,53.199-23.8,53.199-53.2 V53.2C787.6,23.8,763.801,0,734.4,0z M215.9,55.1c14,0,25.4,11.4,25.4,25.4s-11.4,25.4-25.4,25.4s-25.4-11.4-25.4-25.4 S201.9,55.1,215.9,55.1z M215.9,875.5c-14,0-25.4-11.4-25.4-25.4s11.4-25.399,25.4-25.399s25.4,11.399,25.4,25.399 S229.9,875.5,215.9,875.5z M351.1,537.9c0,9-7.3,16.3-16.3,16.3h-3.7c-9,0-16.3-7.3-16.3-16.3V475.8h-71V537.9 c0,9-7.3,16.3-16.3,16.3H224c-9,0-16.3-7.3-16.3-16.3V391.1c0-9,7.3-16.3,16.3-16.3h3.7c9,0,16.3,7.3,16.3,16.3V445.4h71V391.1 c0-9,7.3-16.3,16.3-16.3h3.7c9,0,16.3,7.3,16.3,16.3V537.9H351.1z M533.301,504.3c-4.5,13-10.9,23.601-19.201,31.7 c-6.299,6.1-14.799,10.9-25.398,14.3c-8,2.5-18.701,3.8-32.101,3.8h-51.899c-9,0-16.3-7.3-16.3-16.3V391.1c0-9,7.3-16.3,16.3-16.3 H454.6c14.9,0,26.3,1.101,34.101,3.4c10.5,3.1,19.5,8.6,27,16.5c7.5,7.899,13.199,17.6,17.1,29.1s5.9,25.601,5.9,42.4 C538.801,480.9,537,493.7,533.301,504.3z M637.5,554.1h-51.9c-9,0-16.299-7.3-16.299-16.3V391.1c0-9,7.299-16.3,16.299-16.3h49.9 c14.9,0,26.301,1.101,34.1,3.4c10.5,3.1,19.5,8.6,27,16.5c7.5,7.899,13.201,17.6,17.102,29.1c3.898,11.5,5.898,25.601,5.898,42.4 c0,14.8-1.799,27.5-5.5,38.2c-4.5,13-10.898,23.6-19.199,31.699C688.6,542.2,680.1,547,669.5,550.4 C661.6,552.9,650.9,554.1,637.5,554.1z M702.5,875.5c-14,0-25.4-11.4-25.4-25.4s11.4-25.399,25.4-25.399s25.4,11.399,25.4,25.399 S716.6,875.5,702.5,875.5z M702.5,105.9c-14,0-25.4-11.4-25.4-25.4s11.4-25.4,25.4-25.4s25.4,11.4,25.4,25.4 S716.6,105.9,702.5,105.9z"/> <path d="M668.4,415.3c-4.4-4.2-10-7-16.801-8.399c-5.1-1.101-15-1.7-29.699-1.7H605.6V524h27c10.102,0,17.4-0.6,21.9-1.7 c5.9-1.5,10.701-4,14.6-7.5c3.9-3.5,7-9.3,9.5-17.3c2.4-8,3.701-19,3.701-32.8c0-13.9-1.201-24.5-3.701-31.9 C676.201,425.2,672.801,419.4,668.4,415.3z"/> <path d="M487.4,415.3c-4.4-4.2-10-7-16.801-8.399c-5.1-1.101-15-1.7-29.699-1.7H424.6V524h27c10.101,0,17.4-0.6,21.9-1.7 c5.9-1.5,10.701-4,14.6-7.5c3.9-3.5,7-9.3,9.5-17.3c2.4-8,3.701-19,3.701-32.8c0-13.9-1.201-24.5-3.701-31.9 C495.301,425.2,491.801,419.4,487.4,415.3z"/> </g> </g> </g>
</svg>