<?xml version="1.0" encoding="utf-8"?>
<!-- Uploaded to: SVG Repo, www.svgrepo.com, Generator: SVG Repo Mixer Tools -->
<svg width="800px" height="800px" viewBox="0 -6.94 277.232 277.232" xmlns="http://www.w3.org/2000/svg"><defs><style>.a{fill:#febe69;}.b{fill:#a98a75;}.c{fill:#211715;}.d{fill:#ffffff;}</style></defs><path class="a" d="M227.505,169.116c28,0,47.357,1.868,47.357,7.079,0,9.084-11.879,24.091-47.357,24.091-39.757,0-47.356-14.818-47.356-24.091C180.149,170.984,199.5,169.116,227.505,169.116Z"/><path class="a" d="M49.787,169.116c-28,0-47.356,1.868-47.356,7.079,0,9.084,11.879,24.091,47.356,24.091,39.757,0,47.357-14.818,47.357-24.091C97.144,170.984,77.789,169.116,49.787,169.116Z"/><path class="b" d="M138.646,217.138c-37.576,0-61.226,3.111-63.549,10.423l-3.233,19.4a4.562,4.562,0,0,0,1.381,3.1c6.067,6.569,31.565,10.881,65.4,10.881s59.334-4.312,65.4-10.881a4.562,4.562,0,0,0,1.381-3.1l-3.233-19.4C199.872,220.249,176.222,217.138,138.646,217.138Z"/><path class="c" d="M138.646,214.738c-14.868,0-29.887.243-44.624,2.4a61.169,61.169,0,0,0-13.18,3.087c-2.808,1.085-5.938,2.577-7.472,5.328a7.425,7.425,0,0,0-.8,2.628l-.885,5.31-1.979,11.871c-.052.313-.109.627-.156.941a6.532,6.532,0,0,0,1.709,5.117,13.83,13.83,0,0,0,4.034,3.113,49.337,49.337,0,0,0,12.837,4.418c14.274,3.251,29.173,4.068,43.766,4.325,16.223.285,32.6-.227,48.659-2.709a90.965,90.965,0,0,0,15.832-3.632c3.484-1.2,7.469-2.769,9.828-5.758a6.973,6.973,0,0,0,1.355-5.874l-.868-5.208-2-11.978c-1.058-6.35-8.822-8.409-14.19-9.647a124.546,124.546,0,0,0-16.636-2.437c-7.436-.682-14.9-1-22.369-1.163q-6.432-.142-12.868-.135c-3.088,0-3.093,4.8,0,4.8,14.152,0,28.687.168,42.615,2.126a67.661,67.661,0,0,1,13.02,2.864c.386.135.769.28,1.15.429.083.032.6.249.294.118s.318.146.422.2a16.283,16.283,0,0,1,1.852,1c.254.161.5.338.743.511.121.084-.4-.369-.076-.051.117.117.252.218.373.332.181.173.335.4.525.555.262.219-.242-.435-.1-.135.059.125.165.239.237.359.052.089.094.19.152.274.25.364-.057-.173-.055-.154.015.106.079.21.1.319.065.371.124.743.186,1.115l.837,5.027,1.953,11.716c.071.429.127.865.215,1.291.093.452-.05-.4-.042-.4.225.074-.778,1.417-.875,1.515-.212.213-.446.4-.664.607-.339.322.143-.095.021-.008-.168.122-.334.245-.506.362a18.592,18.592,0,0,1-2.013,1.181c-.373.192-.751.372-1.132.546q-.278.126-.558.246c-.251.109.06-.025.092-.039q-.248.1-.5.2c-.965.382-1.946.725-2.935,1.042-2.332.746-4.71,1.345-7.1,1.863-13.717,2.975-27.958,3.71-41.954,3.937-15.393.25-30.978-.154-46.225-2.441a97.21,97.21,0,0,1-15.612-3.434q-1.417-.46-2.8-1.007c-.132-.052-.264-.106-.4-.161.033.014.344.148.092.039q-.279-.12-.557-.246c-.438-.2-.872-.408-1.3-.631a18.123,18.123,0,0,1-1.914-1.141c-.149-.1-.293-.211-.44-.317-.121-.087.361.33.021.008-.234-.221-.487-.419-.709-.655-.094-.1-1.049-1.393-.83-1.467.037-.012-.135.87-.037.371.086-.443.148-.891.222-1.336l.88-5.276,1.909-11.458c.059-.357.129-.714.179-1.072.014-.1.09-.2.094-.3,0,.011-.3.513-.054.154.067-.1.121-.215.18-.319s.156-.2.208-.314c.142-.3-.362.354-.1.135.205-.172.373-.412.57-.6.106-.1.225-.188.328-.29.321-.318-.2.135-.076.051.267-.187.529-.377.805-.55a16.866,16.866,0,0,1,1.866-1c.1-.047.637-.284.346-.159s.211-.085.294-.118c.412-.161.826-.316,1.243-.462a49.811,49.811,0,0,1,5.782-1.581c12.128-2.638,24.89-2.985,37.338-3.251q6.21-.132,12.422-.125C141.735,219.537,141.74,214.737,138.646,214.738Z"/><path class="c" d="M92.544,238.712c11.434,2.73,23.48,3.3,35.186,3.611A318.916,318.916,0,0,0,169.883,241a108.259,108.259,0,0,0,15.906-2.642c2.986-.78,1.72-5.411-1.276-4.629-10.272,2.684-21.16,3.243-31.719,3.649a330.614,330.614,0,0,1-42.706-.849,115.035,115.035,0,0,1-16.268-2.447c-3-.717-4.284,3.91-1.276,4.628Z"/><path class="c" d="M136.246,62.953V223.62c0,3.089,4.8,3.094,4.8,0V62.953c0-3.089-4.8-3.094-4.8,0Z"/><path class="c" d="M233.388,35.591H43.905c-3.089,0-3.094,4.8,0,4.8H226.27c2.271,0,4.552.061,6.823,0,.1,0,.2,0,.3,0,3.088,0,3.094-4.8,0-4.8Z"/><path class="c" d="M223.11,44.479q6.246,21.392,12.49,42.782,6.642,22.731,13.327,45.451,2.98,10.11,6,20.21c.883,2.952,5.518,1.695,4.628-1.276q-5.875-19.632-11.609-39.309-6.806-23.2-13.574-46.423-3.314-11.355-6.629-22.711c-.864-2.959-5.5-1.7-4.628,1.276Z"/><path class="c" d="M214.732,50.108q-10.2,42.561-18.21,85.6-2.247,12.087-4.319,24.205a2.469,2.469,0,0,0,1.676,2.952,2.42,2.42,0,0,0,2.952-1.676q7.385-43.138,16.969-85.86,2.694-11.994,5.56-23.95c.72-3-3.908-4.283-4.628-1.276Z"/><path class="c" d="M220.943,69.234l3.245,72.338.917,20.454c.138,3.076,4.939,3.093,4.8,0L226.66,89.688l-.917-20.454c-.138-3.076-4.939-3.093-4.8,0Z"/><path class="c" d="M227.505,171.516a282.609,282.609,0,0,1,32.217,1.342,52.705,52.705,0,0,1,9.433,1.784c.557.171,1.1.367,1.646.579.335.131-.526-.257-.044-.015.093.047.191.085.283.134.258.134.517.262.766.414.168.1.325.22.489.326-.469-.3-.035-.2.014.041.011.054.741.834.041-.01a1.88,1.88,0,0,1,.243.415c-.352-.776-.13-.284-.077-.053-.188-.824-.035-.336-.057-.042-.019.268-.186,1.6-.025.7a16.808,16.808,0,0,1-.641,2.6c-.063.18-.134.358-.2.537-.23.631.194-.364-.1.242-.228.463-.447.926-.7,1.375-.268.475-.557.938-.863,1.388-.144.212-.293.419-.443.626-.085.118-.173.233-.261.348.241-.315.1-.128-.064.07a28.42,28.42,0,0,1-2.55,2.678,20.763,20.763,0,0,1-2.954,2.324,40.084,40.084,0,0,1-8.7,4.407c-9.051,3.312-18.805,4.212-28.382,4.155-9.238-.054-18.7-.79-27.5-3.788-5.08-1.73-9.525-4.176-13.006-8.227-.088-.1-.169-.209-.255-.312-.223-.27.348.477.035.046-.137-.189-.277-.375-.411-.567q-.451-.646-.848-1.329-.324-.559-.608-1.141c-.1-.209-.2-.422-.293-.633-.063-.135-.164-.42.08.2-.05-.126-.1-.251-.151-.378a19.532,19.532,0,0,1-.748-2.479c-.08-.36-.135-.723-.2-1.084-.122-.632.039.557-.01-.069-.016-.212-.043-.423-.059-.635-.027-.356-.026-.712-.048-1.068-.016-.264.122-.815-.055.059.083-.411.106-.345-.077.053a1.451,1.451,0,0,1,.243-.415c-.627.586-.109.155.041.01.259-.251.3-.239-.037,0,.217-.151.43-.3.658-.433.189-.111.383-.213.579-.311.211-.1.752-.334.229-.12.6-.244,1.2-.453,1.82-.64a39.345,39.345,0,0,1,4.331-1.018c9.077-1.676,18.849-1.851,28.224-2.008q4.5-.075,9-.071c3.089,0,3.094-4.8,0-4.8-11.18,0-22.48.086-33.587,1.508a49.181,49.181,0,0,0-10.243,2.087c-2.248.8-4.857,2.008-5.681,4.451-.568,1.683-.153,3.854.2,5.541a19.713,19.713,0,0,0,2.184,5.7c2.657,4.67,7.093,8.124,11.865,10.445,8.021,3.9,17.059,5.333,25.881,5.935,11.078.756,22.555.394,33.326-2.514,6.929-1.87,13.83-4.93,19.066-9.952,3.469-3.327,6.186-7.659,6.683-12.515.581-5.689-5.77-7.341-10.2-8.244-9.737-1.982-19.907-2.177-29.806-2.358q-4.841-.087-9.68-.083C224.417,166.715,224.412,171.515,227.505,171.516Z"/><path class="c" d="M261.134,177.847c-8.123,1.934-16.656,2.31-24.97,2.538a240.258,240.258,0,0,1-31.033-.927,75.16,75.16,0,0,1-11.255-1.873c-2.991-.779-4.268,3.849-1.276,4.628,7.922,2.064,16.334,2.536,24.478,2.859a245.864,245.864,0,0,0,32.241-.636,93.8,93.8,0,0,0,13.091-1.96c3-.715,1.732-5.345-1.276-4.629Z"/><path class="c" d="M49.88,42.093q-6.3,21.578-12.6,43.157-6.7,22.941-13.449,45.869-3.028,10.269-6.089,20.527c-.888,2.966,3.744,4.233,4.629,1.276q5.927-19.8,11.71-39.65,6.867-23.415,13.7-46.842Q51.143,54.9,54.508,43.369c.868-2.971-3.763-4.24-4.628-1.276Z"/><path class="c" d="M58.437,53.847Q68.4,95.43,76.23,137.486q2.2,11.838,4.231,23.708a2.421,2.421,0,0,0,2.953,1.676,2.456,2.456,0,0,0,1.676-2.952Q77.875,117.771,68.512,76.03q-2.638-11.749-5.446-23.459c-.72-3-5.349-1.731-4.629,1.276Z"/><path class="c" d="M51.55,69.234l-3.245,72.338-.918,20.454c-.138,3.088,4.662,3.081,4.8,0l3.245-72.338.918-20.454c.138-3.088-4.662-3.081-4.8,0Z"/><path class="c" d="M49.787,166.716c-11.18,0-22.48.086-33.587,1.508a49.181,49.181,0,0,0-10.243,2.087c-2.248.8-4.857,2.008-5.681,4.451-.609,1.8-.1,4.086.462,5.847a20.41,20.41,0,0,0,3.294,6.2c4.064,5.311,9.93,8.8,16.089,11.192,9.583,3.72,20.16,4.726,30.364,4.681,9.915-.044,20.229-.832,29.639-4.18,9.583-3.409,18.67-10.308,19.383-21.194a5.666,5.666,0,0,0-2.662-5.485,21.042,21.042,0,0,0-7.572-2.668c-9.738-1.982-19.907-2.177-29.807-2.358q-4.839-.087-9.679-.083c-3.089,0-3.094,4.8,0,4.8A282.609,282.609,0,0,1,82,172.858a52.705,52.705,0,0,1,9.433,1.784c.557.171,1.1.367,1.646.579.335.131-.526-.257-.044-.015.093.047.191.085.283.134.258.134.517.262.766.414.167.1.324.22.489.326-.469-.3-.036-.2.014.041.011.054.741.834.041-.01a1.88,1.88,0,0,1,.243.415c-.352-.776-.13-.284-.077-.053-.188-.82-.041-.348-.056-.059-.019.375-.022.75-.051,1.125-.016.193-.041.385-.056.578-.047.6.1-.508,0,.01-.081.422-.145.845-.241,1.264a18.811,18.811,0,0,1-.721,2.358c-.047.127-.1.252-.151.378.013-.032.248-.554.081-.2-.1.211-.192.424-.294.633q-.315.647-.682,1.268-.345.582-.73,1.139c-.147.213-.3.422-.455.63-.244.332.05-.065.085-.109-.118.147-.236.293-.356.438a22.254,22.254,0,0,1-2.338,2.389q-.345.3-.7.595c-.1.08-.195.157-.292.236-.48.386.268-.2-.044.033-.563.416-1.133.818-1.722,1.2a33.76,33.76,0,0,1-3.759,2.075,50.1,50.1,0,0,1-9.818,3.252A85.764,85.764,0,0,1,58.969,197.6c-10.34.688-20.984.435-31.068-2.151a48.776,48.776,0,0,1-10.339-3.8,30.969,30.969,0,0,1-6.953-4.713,27.121,27.121,0,0,1-2.588-2.749c-.074-.09-.279-.359.048.069-.07-.092-.141-.184-.209-.278-.167-.231-.334-.46-.494-.7-.307-.45-.6-.913-.863-1.388-.254-.449-.476-.911-.7-1.375-.277-.57.1.322-.076-.174-.09-.247-.188-.49-.272-.739q-.2-.585-.347-1.186c-.053-.214-.1-.428-.142-.644-.023-.119-.138-.915-.08-.438s-.014-.174-.022-.3c-.011-.2-.013-.4-.03-.6-.023-.266.123-.839-.056.042.083-.411.106-.345-.078.053a1.454,1.454,0,0,1,.244-.415c-.627.586-.109.155.041.01.259-.251.3-.239-.037,0,.216-.151.43-.3.658-.433.189-.111.383-.213.579-.311s.752-.334.229-.12c.595-.244,1.2-.453,1.819-.64a39.453,39.453,0,0,1,4.331-1.018c9.078-1.676,18.85-1.851,28.225-2.008q4.5-.075,9-.071C52.876,171.515,52.881,166.715,49.787,166.716Z"/><path class="c" d="M14.882,182.476c8.459,2.013,17.358,2.458,26.018,2.7a238.162,238.162,0,0,0,31.615-.957,82.579,82.579,0,0,0,12.177-2.008c2.987-.778,1.721-5.409-1.276-4.628-7.589,1.977-15.621,2.393-23.422,2.695a247.165,247.165,0,0,1-31.644-.61,85.7,85.7,0,0,1-12.192-1.823c-3-.715-4.285,3.913-1.276,4.629Z"/><path class="d" d="M147.033,28.137c-2.89-7.822-4.252-12.3-7.289-24.892a1.12,1.12,0,0,0-2.178,0c-3.3,13.887-5.88,22.939-11.225,34.169a30.081,30.081,0,0,1-3.127,4.973,1.114,1.114,0,0,0,.111,1.47,69.182,69.182,0,0,1,14.314,20.3,1.11,1.11,0,0,0,2.014,0,69.185,69.185,0,0,1,14.315-20.3,1.114,1.114,0,0,0,.11-1.47,30.081,30.081,0,0,1-3.127-4.973C149.424,34.211,148.153,31.168,147.033,28.137Z"/><path class="c" d="M149.347,27.5a215.6,215.6,0,0,1-7.059-23.94,4.282,4.282,0,0,0-1.96-3.148,3.553,3.553,0,0,0-3.8.309c-1.145.867-1.343,2.177-1.658,3.49q-.524,2.177-1.066,4.348c-1.206,4.8-2.515,9.586-4.1,14.281a113.151,113.151,0,0,1-5.433,13.369,27.26,27.26,0,0,1-2.058,3.488c-.914,1.331-1.942,2.5-1.511,4.246.324,1.311,1.548,2.216,2.441,3.148q1.414,1.479,2.739,3.038a66.657,66.657,0,0,1,8.753,13.308c.584,1.166,1,2.516,2.163,3.246a3.538,3.538,0,0,0,4.186-.376,10.783,10.783,0,0,0,1.872-3.255q.976-1.919,2.072-3.774a65.408,65.408,0,0,1,4.984-7.318q1.469-1.859,3.066-3.61a32.62,32.62,0,0,0,3.064-3.276c1.089-1.6.618-3.172-.431-4.628A28.737,28.737,0,0,1,153.12,36.4a94.1,94.1,0,0,1-3.773-8.905,2.466,2.466,0,0,0-2.952-1.677,2.42,2.42,0,0,0-1.676,2.953c1.744,4.694,3.578,9.605,6.479,13.72a4.315,4.315,0,0,0,.536.743l.272.365-.042-1.136a12.089,12.089,0,0,0-1.206,1.229q-1.341,1.4-2.6,2.874c-1.532,1.79-2.981,3.658-4.339,5.584a69.5,69.5,0,0,0-3.895,6.194q-.838,1.5-1.6,3.05a6.841,6.841,0,0,0-.651,1.36c-.2.917,2.161.919,1.949,0a5.088,5.088,0,0,0-.463-.973,69.976,69.976,0,0,0-7.475-12.056,73.686,73.686,0,0,0-4.851-5.721,10.391,10.391,0,0,0-1.2-1.237l-.152-.152q-.55-.662-.195.984a6.611,6.611,0,0,0,.542-.735,30.55,30.55,0,0,0,2.082-3.256,92.64,92.64,0,0,0,5.233-12.143c1.458-3.94,2.7-7.955,3.815-12.006.61-2.221,1.184-4.452,1.738-6.687q.436-1.756.856-3.516a8.082,8.082,0,0,0,.218-.911c.143-1.252.45.828-1.117.44l-.612-.453q-.9-.971-.5.027a4.658,4.658,0,0,0,.282,1.166,211.063,211.063,0,0,0,6.891,23.246,2.465,2.465,0,0,0,2.952,1.676A2.419,2.419,0,0,0,149.347,27.5Z"/></svg>